<svg xmlns="http://www.w3.org/2000/svg" viewBox="0 0 680 170"><path d="M37.78,103.37H26.2l-1.32-14.1-4.2,14.1H9.58l1.62-42h7.2L16.9,97l5.82-17.88h6.84L31.78,97l4.8-35.58h6.9Z"/><path d="M58.9,104c-9.48,0-12.48-5-12.48-15.12,0-2.1.12-4.44.36-7,1.2-14.1,3.78-21.12,15.9-21.12,9.36,0,12.48,5,12.48,15.12,0,1.86-.12,3.84-.3,6C73.54,96.59,71.38,104,58.9,104Zm7.92-28.74c0-6.36-1.44-8-4.74-8-4.26,0-5.94,2.64-7,14.94-.24,2.7-.36,5-.36,6.9,0,6.48,1.44,8.4,4.74,8.4,4.26,0,6-3.18,7-15.3C66.7,79.38,66.82,77.1,66.82,75.24Z"/><path d="M100.54,86.28l5.94,17.1H97.42L92.5,87.54H89.8l-1.38,15.84H80.2l3.66-42s6.12-.6,11.1-.6c8.88,0,12.36,3.6,12.36,10.92,0,.78-.06,1.56-.12,2.4C106.6,80.88,104.32,84.54,100.54,86.28ZM98.92,72.54c0-3.24-.9-4.56-3.78-4.56a22.2,22.2,0,0,0-3.66.36L90.4,80.46h3.78c2.46,0,4.32-2,4.68-5.94C98.92,73.8,98.92,73.14,98.92,72.54Z"/><path d="M123.46,104c-4.26,0-11.28-.6-11.28-.6l3.66-42s7.32-.6,10.68-.6c8,0,13.32,2.52,13.32,15.48,0,1.62-.06,3.48-.24,5.46C138,99.59,133.36,104,123.46,104Zm8.1-28.68c0-6.54-1.56-7.26-4.38-7.26a26.09,26.09,0,0,0-3.72.24L121,96.47a18.86,18.86,0,0,0,3.6.24c3.72,0,5.64-3.06,6.6-14.58C131.44,79.32,131.56,77.1,131.56,75.29Z"/><path d="M157.84,88.92h-3.42l-1.26,14.46h-8.22l3.66-42s6.12-.6,11.1-.6c9.3,0,12.72,4.14,12.72,11.52,0,.78-.06,1.62-.12,2.46C171.4,85.32,167.14,88.92,157.84,88.92ZM164,73.32c0-3.48-1-5.34-3.9-5.34a16.39,16.39,0,0,0-3.9.36L155,81.83h3.78c2.82,0,4.8-2.58,5.16-6.66C164,74.52,164,73.92,164,73.32Z"/><path d="M196.48,86.28l5.94,17.1h-9.06l-4.92-15.84h-2.7l-1.38,15.84h-8.22l3.66-42s6.12-.6,11.1-.6c8.88,0,12.36,3.6,12.36,10.92,0,.78-.06,1.56-.12,2.4C202.54,80.88,200.26,84.54,196.48,86.28Zm-1.62-13.74c0-3.24-.9-4.56-3.78-4.56a22.2,22.2,0,0,0-3.66.36l-1.08,12.12h3.78c2.46,0,4.32-2,4.68-5.94C194.86,73.8,194.86,73.14,194.86,72.54Z"/><path d="M208.12,103.37l3.66-42h21.48l-.6,6.48H219.4l-.9,10.62h11.76l-.6,6.42H217.9l-1,12h13.26l-.54,6.48Z"/><path d="M257.92,90.35c-1.08,11.46-6.42,13.44-15,13.44a39.76,39.76,0,0,1-8.46-.9l.66-7.14a39.09,39.09,0,0,0,7.8,1c4,0,6.66-1.8,6.66-6.84,0-3.3-1.68-4.2-4.62-4.92-5.94-1.44-8.28-4.86-8.28-9.9,0-9.72,4.62-14.1,15.24-14.1a35.4,35.4,0,0,1,7.5.84l-.6,7.14a30.81,30.81,0,0,0-8-.9c-3.84,0-5.76,1.86-5.76,6.12,0,2.34,1.08,3.06,4.32,3.78,5.16,1.2,8.64,3.9,8.64,10.32C258,88.92,258,89.63,257.92,90.35Z"/><path d="M282.46,90.35c-1.08,11.46-6.42,13.44-15,13.44a39.77,39.77,0,0,1-8.46-.9l.66-7.14a39.1,39.1,0,0,0,7.8,1c4,0,6.66-1.8,6.66-6.84,0-3.3-1.68-4.2-4.62-4.92-5.94-1.44-8.28-4.86-8.28-9.9,0-9.72,4.62-14.1,15.24-14.1a35.39,35.39,0,0,1,7.5.84l-.6,7.14a30.8,30.8,0,0,0-8-.9c-3.84,0-5.76,1.86-5.76,6.12,0,2.34,1.08,3.06,4.32,3.78,5.16,1.2,8.64,3.9,8.64,10.32C282.58,88.92,282.52,89.63,282.46,90.35Z"/><path d="M326.68,102.83a60.87,60.87,0,0,1-10.38,1.08c-8.22,0-12.36-3.24-12.36-15.54,0-2,.06-4.2.3-6.66C305.8,64,311,60.84,321.52,60.84a38.74,38.74,0,0,1,7.5.84l-.6,7.2a41.38,41.38,0,0,0-8.16-.84c-5,0-6.66,2.22-7.74,14.1q-.36,4.23-.36,7c0,6.12,1.32,7.56,4.56,7.56.84,0,1.74,0,2.52-.06l.84-9.48h-3.84l.6-7.08h11.82Z"/><path d="M353.5,103.37l-1.08-9.78h-10.2l-2.76,9.78h-8.58l13.14-42h12.12l5.64,42Zm-3.78-36.72L344.2,86.51h7.5Z"/><path d="M366.88,103.37l3.66-42h8.22l-3.06,35h12.18l-.6,7Z"/><path d="M392.08,103.37l3.66-42H404l-3.06,35h12.18l-.6,7Z"/><path d="M417.28,103.37l3.66-42h21.48l-.6,6.48H428.56l-.9,10.62h11.76l-.6,6.42H427.06l-1,12H439.3l-.54,6.48Z"/><path d="M466.3,86.28l5.94,17.1h-9.06l-4.92-15.84h-2.7l-1.38,15.84H446l3.66-42s6.12-.6,11.1-.6c8.88,0,12.36,3.6,12.36,10.92,0,.78-.06,1.56-.12,2.4C472.36,80.88,470.08,84.54,466.3,86.28Zm-1.62-13.74c0-3.24-.9-4.56-3.78-4.56a22.18,22.18,0,0,0-3.66.36l-1.08,12.12h3.78c2.46,0,4.32-2,4.68-5.94C464.68,73.8,464.68,73.14,464.68,72.54Z"/><path d="M495.34,84.89l-1.56,18.48h-8.4l1.56-18.48L478,61.38h8.7l5.22,16.2,8.1-16.2h8.64Z"/><path d="M526.6,103.37l3.66-42h21.48l-.6,6.48H537.88L537,78.48h11.76l-.6,6.42H536.38l-1,12h13.26l-.54,6.48Z"/><path d="M572.5,103.37l-4.32-13.92L561,103.37H552l12.66-21.78-7.8-20.22H566L569.8,73.8,576,61.38h8.94L573.1,81.54l8.58,21.84Z"/><path d="M603,68.64l-3,34.74h-8.22l3-34.74h-8.64l.66-7.26h25.5l-.66,7.26Z"/><path d="M633.82,86.28l5.94,17.1H630.7l-4.92-15.84h-2.7l-1.38,15.84h-8.22l3.66-42s6.12-.6,11.1-.6c8.88,0,12.36,3.6,12.36,10.92,0,.78-.06,1.56-.12,2.4C639.88,80.88,637.6,84.54,633.82,86.28ZM632.2,72.54c0-3.24-.9-4.56-3.78-4.56a22.18,22.18,0,0,0-3.66.36l-1.08,12.12h3.78c2.46,0,4.32-2,4.68-5.94C632.2,73.8,632.2,73.14,632.2,72.54Z"/><path d="M664.78,103.37l-1.08-9.78H653.5l-2.76,9.78h-8.58l13.14-42h12.12l5.64,42ZM661,66.66l-5.52,19.86H663Z"/></svg>