<svg id="Layer_1" data-name="Layer 1" xmlns="http://www.w3.org/2000/svg" width="1024" height="1024" viewBox="0 0 1024 1024">
  <title>wgextra</title>
  <g>
    <circle cx="512" cy="512" r="512" style="fill: #fff"/>
    <path d="M822.38,509.77c0,169.78-137.68,307.46-307.46,307.46S207.44,679.55,207.44,509.77,345.12,202.31,514.91,202.31,822.38,340,822.38,509.77Z" style="fill: #ffcc5d"/>
    <path d="M87.35,509.77C87.35,273.93,279.21,82,515.12,82c206.46,0,379,143.92,418.94,341.55H902c-39.32-179.9-197.85-310.2-386.92-310.2-218.64,0-396.47,177.84-396.47,396.43S296.48,906.22,515.12,906.22c199.63,0,365.38-145.43,392.55-341.1H669.79c-33.79,0-52-25.39-53.44-51.49v-101h31.37v101h0c.84,6.59,4.61,20.15,22,20.15H942.47C928.9,757.57,736.71,937.54,515.12,937.54,279.21,937.54,87.35,745.64,87.35,509.77Z" style="fill: #218da6"/>
  </g>
</svg>
