<svg xmlns="http://www.w3.org/2000/svg" viewBox="0 0 100 100"><title>woocommerce-logo</title><circle cx="50" cy="50" r="50" style="fill:#9b5c8f"/><path d="M27.4,50.2a2.66,2.66,0,0,1,2.1-1,2.46,2.46,0,0,1,2.9,2.4c1,7,2.2,12.9,3.4,17.8l7.3-14a3.21,3.21,0,0,1,2.5-2c1.5-.1,2.4.8,2.7,2.8a59,59,0,0,0,3.2,11.5c.9-8.5,2.3-14.7,4.4-18.4a2.75,2.75,0,0,1,4.3-.8,2.42,2.42,0,0,1,1,1.9,4.15,4.15,0,0,1-.3,1.6c-1.3,2.4-2.4,6.5-3.3,12.1a65,65,0,0,0-.9,12.8,4,4,0,0,1-.4,2.2,2.3,2.3,0,0,1-1.8,1.2,3,3,0,0,1-2.6-1.2c-3.1-3.2-5.6-7.9-7.4-14.3-2.2,4.3-3.8,7.5-4.8,9.7-2,3.8-3.7,5.7-5.1,5.8-.9.1-1.7-.7-2.3-2.3-1.7-4.4-3.6-12.9-5.5-25.5A4.14,4.14,0,0,1,27.4,50.2Z" transform="translate(-14 -14)" style="fill:#fff"/><path d="M99.5,55.5a7.77,7.77,0,0,0-5.4-3.9,11,11,0,0,0-1.8-.2c-3.2,0-5.8,1.7-7.9,5a18.32,18.32,0,0,0-2.6,9.5,12.42,12.42,0,0,0,1.6,6.6,7.77,7.77,0,0,0,5.4,3.9,11,11,0,0,0,1.8.2c3.3,0,5.9-1.7,7.9-5a18.32,18.32,0,0,0,2.6-9.5,12.42,12.42,0,0,0-1.6-6.6Zm-4.2,9.3a9.45,9.45,0,0,1-2.5,5,3.43,3.43,0,0,1-2.7,1.1,3.18,3.18,0,0,1-2-2.2,8.53,8.53,0,0,1-.6-3.1,17.91,17.91,0,0,1,.2-2.4,11,11,0,0,1,1.8-4c1.1-1.6,2.3-2.3,3.5-2.1a3.18,3.18,0,0,1,2,2.2,8.53,8.53,0,0,1,.6,3.1c-.1.7-.2,1.6-.3,2.4Z" transform="translate(-14 -14)" style="fill:#fff"/><path d="M78.5,55.5a7.77,7.77,0,0,0-5.4-3.9,11,11,0,0,0-1.8-.2c-3.2,0-5.8,1.7-7.9,5a18.32,18.32,0,0,0-2.6,9.5,12.42,12.42,0,0,0,1.6,6.6,7.77,7.77,0,0,0,5.4,3.9,11,11,0,0,0,1.8.2c3.3,0,5.9-1.7,7.9-5a18.32,18.32,0,0,0,2.6-9.5,12.42,12.42,0,0,0-1.6-6.6Zm-4.2,9.3a9.45,9.45,0,0,1-2.5,5,3.43,3.43,0,0,1-2.7,1.1,3.18,3.18,0,0,1-2-2.2,8.53,8.53,0,0,1-.6-3.1,17.91,17.91,0,0,1,.2-2.4,11,11,0,0,1,1.8-4c1.1-1.6,2.3-2.3,3.5-2.1a3.18,3.18,0,0,1,2,2.2,8.53,8.53,0,0,1,.6,3.1c-.1.7-.2,1.6-.3,2.4Z" transform="translate(-14 -14)" style="fill:#fff"/></svg>